<mxfile host="app.diagrams.net" agent="Mozilla/5.0 (Windows NT 10.0; Win64; x64) AppleWebKit/537.36 (KHTML, like Gecko) Chrome/131.0.0.0 Safari/537.36" version="25.0.1">
  <diagram name="Page-1" id="b520641d-4fe3-3701-9064-5fc419738815">
    <mxGraphModel dx="2016" dy="387" grid="1" gridSize="10" guides="1" tooltips="1" connect="1" arrows="1" fold="1" page="1" pageScale="1" pageWidth="1100" pageHeight="850" background="none" math="0" shadow="0">
      <root>
        <mxCell id="0" />
        <mxCell id="1" parent="0" />
        <mxCell id="21ea969265ad0168-14" value="1.0" style="swimlane;html=1;fontStyle=0;childLayout=stackLayout;horizontal=1;startSize=26;fillColor=#e0e0e0;horizontalStack=0;resizeParent=1;resizeLast=0;collapsible=1;marginBottom=0;swimlaneFillColor=#ffffff;align=center;rounded=1;shadow=0;comic=0;labelBackgroundColor=none;strokeWidth=1;fontFamily=Verdana;fontSize=12" parent="1" vertex="1">
          <mxGeometry x="-70" y="200" width="160" height="110" as="geometry" />
        </mxCell>
        <mxCell id="21ea969265ad0168-15" value="&lt;span style=&quot;font-size: 18px;&quot;&gt;จัดการข้อมูล&lt;/span&gt;&lt;div&gt;&lt;span style=&quot;font-size: 18px;&quot;&gt;บุคคล&lt;/span&gt;&lt;/div&gt;" style="text;html=1;strokeColor=none;fillColor=none;spacingLeft=4;spacingRight=4;whiteSpace=wrap;overflow=hidden;rotatable=0;points=[[0,0.5],[1,0.5]];portConstraint=eastwest;align=center;" parent="21ea969265ad0168-14" vertex="1">
          <mxGeometry y="26" width="160" height="54" as="geometry" />
        </mxCell>
        <mxCell id="J-rECzXJLJKtCDADrSuw-3" value="&lt;span style=&quot;font-size: 18px; text-wrap-mode: nowrap;&quot;&gt;ผู้ใช้&lt;/span&gt;" style="rounded=0;whiteSpace=wrap;html=1;" vertex="1" parent="1">
          <mxGeometry x="-360" y="220" width="120" height="60" as="geometry" />
        </mxCell>
        <mxCell id="J-rECzXJLJKtCDADrSuw-29" value="2.0" style="swimlane;html=1;fontStyle=0;childLayout=stackLayout;horizontal=1;startSize=26;fillColor=#e0e0e0;horizontalStack=0;resizeParent=1;resizeLast=0;collapsible=1;marginBottom=0;swimlaneFillColor=#ffffff;align=center;rounded=1;shadow=0;comic=0;labelBackgroundColor=none;strokeWidth=1;fontFamily=Verdana;fontSize=12" vertex="1" parent="1">
          <mxGeometry x="-70" y="400" width="160" height="110" as="geometry" />
        </mxCell>
        <mxCell id="J-rECzXJLJKtCDADrSuw-30" value="&lt;span style=&quot;font-size: 18px;&quot;&gt;จัดการข้อมูล&lt;/span&gt;&lt;div&gt;&lt;span style=&quot;font-size: 18px;&quot;&gt;โครงการ&lt;/span&gt;&lt;/div&gt;" style="text;html=1;strokeColor=none;fillColor=none;spacingLeft=4;spacingRight=4;whiteSpace=wrap;overflow=hidden;rotatable=0;points=[[0,0.5],[1,0.5]];portConstraint=eastwest;align=center;" vertex="1" parent="J-rECzXJLJKtCDADrSuw-29">
          <mxGeometry y="26" width="160" height="54" as="geometry" />
        </mxCell>
        <mxCell id="J-rECzXJLJKtCDADrSuw-31" value="" style="endArrow=classic;html=1;rounded=0;exitX=1;exitY=0.25;exitDx=0;exitDy=0;entryX=0.003;entryY=0.172;entryDx=0;entryDy=0;entryPerimeter=0;" edge="1" parent="1" source="J-rECzXJLJKtCDADrSuw-3" target="21ea969265ad0168-15">
          <mxGeometry width="50" height="50" relative="1" as="geometry">
            <mxPoint x="-260" y="230" as="sourcePoint" />
            <mxPoint x="-66.48000000000002" y="232.404" as="targetPoint" />
            <Array as="points" />
          </mxGeometry>
        </mxCell>
        <mxCell id="J-rECzXJLJKtCDADrSuw-40" value="&lt;span style=&quot;text-wrap-mode: wrap; background-color: rgb(251, 251, 251);&quot;&gt;&lt;font style=&quot;font-size: 10px;&quot;&gt;ข้อมูลผู้ใช้&lt;/font&gt;&lt;/span&gt;" style="edgeLabel;html=1;align=center;verticalAlign=middle;resizable=0;points=[];rotation=0;" vertex="1" connectable="0" parent="J-rECzXJLJKtCDADrSuw-31">
          <mxGeometry x="-0.0639" y="2" relative="1" as="geometry">
            <mxPoint x="30" y="-3" as="offset" />
          </mxGeometry>
        </mxCell>
        <mxCell id="J-rECzXJLJKtCDADrSuw-32" value="" style="endArrow=classic;html=1;rounded=0;exitX=-0.003;exitY=0.826;exitDx=0;exitDy=0;entryX=1;entryY=0.833;entryDx=0;entryDy=0;entryPerimeter=0;exitPerimeter=0;" edge="1" parent="1" source="21ea969265ad0168-15" target="J-rECzXJLJKtCDADrSuw-3">
          <mxGeometry width="50" height="50" relative="1" as="geometry">
            <mxPoint x="-70" y="262" as="sourcePoint" />
            <mxPoint x="-260" y="260" as="targetPoint" />
            <Array as="points" />
          </mxGeometry>
        </mxCell>
        <mxCell id="J-rECzXJLJKtCDADrSuw-41" value="&lt;span style=&quot;text-wrap-mode: wrap; background-color: rgb(251, 251, 251);&quot;&gt;&lt;font style=&quot;font-size: 10px;&quot;&gt;แสดงข้อมูลผู้ใช้&lt;/font&gt;&lt;/span&gt;" style="edgeLabel;html=1;align=center;verticalAlign=middle;resizable=0;points=[];" vertex="1" connectable="0" parent="J-rECzXJLJKtCDADrSuw-32">
          <mxGeometry x="0.0721" y="-2" relative="1" as="geometry">
            <mxPoint x="-39" y="2" as="offset" />
          </mxGeometry>
        </mxCell>
        <mxCell id="J-rECzXJLJKtCDADrSuw-49" value="" style="group" vertex="1" connectable="0" parent="1">
          <mxGeometry x="260" y="200" width="190" height="30" as="geometry" />
        </mxCell>
        <mxCell id="J-rECzXJLJKtCDADrSuw-50" value="&lt;font style=&quot;font-size: 18px;&quot;&gt;D1&lt;/font&gt;" style="html=1;dashed=0;whiteSpace=wrap;shape=mxgraph.dfd.dataStoreID;align=left;spacingLeft=3;points=[[0,0],[0.5,0],[1,0],[0,0.5],[1,0.5],[0,1],[0.5,1],[1,1]];container=0;" vertex="1" parent="J-rECzXJLJKtCDADrSuw-49">
          <mxGeometry width="190" height="30" as="geometry" />
        </mxCell>
        <mxCell id="J-rECzXJLJKtCDADrSuw-51" value="&lt;font style=&quot;font-size: 18px; font-weight: normal;&quot;&gt;ผู้ใช้&lt;/font&gt;" style="text;strokeColor=none;fillColor=none;html=1;fontSize=24;fontStyle=1;verticalAlign=middle;align=center;container=0;" vertex="1" parent="J-rECzXJLJKtCDADrSuw-49">
          <mxGeometry x="28.5" width="95" height="30" as="geometry" />
        </mxCell>
        <mxCell id="J-rECzXJLJKtCDADrSuw-52" value="" style="endArrow=classic;html=1;rounded=0;exitX=0.992;exitY=0.389;exitDx=0;exitDy=0;exitPerimeter=0;entryX=0;entryY=0.242;entryDx=0;entryDy=0;entryPerimeter=0;" edge="1" target="J-rECzXJLJKtCDADrSuw-50" parent="1">
          <mxGeometry width="50" height="50" relative="1" as="geometry">
            <mxPoint x="88.72000000000025" y="207.00599999999997" as="sourcePoint" />
            <mxPoint x="260" y="210" as="targetPoint" />
            <Array as="points" />
          </mxGeometry>
        </mxCell>
        <mxCell id="J-rECzXJLJKtCDADrSuw-53" value="&lt;span style=&quot;text-wrap-mode: wrap; background-color: rgb(251, 251, 251);&quot;&gt;&lt;font style=&quot;font-size: 10px;&quot;&gt;ข้อมูลผู้ใช้&lt;/font&gt;&lt;/span&gt;" style="edgeLabel;html=1;align=center;verticalAlign=middle;resizable=0;points=[];rotation=0;" vertex="1" connectable="0" parent="J-rECzXJLJKtCDADrSuw-52">
          <mxGeometry x="-0.0639" y="2" relative="1" as="geometry">
            <mxPoint x="40" y="2" as="offset" />
          </mxGeometry>
        </mxCell>
        <mxCell id="J-rECzXJLJKtCDADrSuw-54" value="" style="endArrow=classic;html=1;rounded=0;exitX=-0.001;exitY=0.799;exitDx=0;exitDy=0;exitPerimeter=0;entryX=1;entryY=0.709;entryDx=0;entryDy=0;entryPerimeter=0;" edge="1" source="J-rECzXJLJKtCDADrSuw-50" parent="1">
          <mxGeometry width="50" height="50" relative="1" as="geometry">
            <mxPoint x="259" y="230" as="sourcePoint" />
            <mxPoint x="90" y="224.28599999999994" as="targetPoint" />
            <Array as="points" />
          </mxGeometry>
        </mxCell>
        <mxCell id="J-rECzXJLJKtCDADrSuw-55" value="&lt;span style=&quot;text-wrap-mode: wrap; background-color: rgb(251, 251, 251);&quot;&gt;&lt;font style=&quot;font-size: 10px;&quot;&gt;ค้นหาข้อมูลผู้ใช้&lt;/font&gt;&lt;/span&gt;" style="edgeLabel;html=1;align=center;verticalAlign=middle;resizable=0;points=[];rotation=0;" vertex="1" connectable="0" parent="J-rECzXJLJKtCDADrSuw-54">
          <mxGeometry x="-0.0639" y="2" relative="1" as="geometry">
            <mxPoint x="-41" as="offset" />
          </mxGeometry>
        </mxCell>
        <mxCell id="J-rECzXJLJKtCDADrSuw-90" value="" style="group" vertex="1" connectable="0" parent="1">
          <mxGeometry x="261.28" y="240" width="190" height="30" as="geometry" />
        </mxCell>
        <mxCell id="J-rECzXJLJKtCDADrSuw-91" value="&lt;font style=&quot;font-size: 18px;&quot;&gt;D1&lt;/font&gt;" style="html=1;dashed=0;whiteSpace=wrap;shape=mxgraph.dfd.dataStoreID;align=left;spacingLeft=3;points=[[0,0],[0.5,0],[1,0],[0,0.5],[1,0.5],[0,1],[0.5,1],[1,1]];container=0;" vertex="1" parent="J-rECzXJLJKtCDADrSuw-90">
          <mxGeometry width="190" height="30" as="geometry" />
        </mxCell>
        <mxCell id="J-rECzXJLJKtCDADrSuw-92" value="&lt;span style=&quot;font-size: 18px; font-weight: 400; text-wrap-mode: wrap;&quot;&gt;สมาชิก&lt;/span&gt;" style="text;strokeColor=none;fillColor=none;html=1;fontSize=24;fontStyle=1;verticalAlign=middle;align=center;container=0;" vertex="1" parent="J-rECzXJLJKtCDADrSuw-90">
          <mxGeometry x="28.5" width="95" height="30" as="geometry" />
        </mxCell>
        <mxCell id="J-rECzXJLJKtCDADrSuw-93" value="" style="endArrow=classic;html=1;rounded=0;exitX=0.992;exitY=0.389;exitDx=0;exitDy=0;exitPerimeter=0;entryX=0;entryY=0.242;entryDx=0;entryDy=0;entryPerimeter=0;" edge="1" target="J-rECzXJLJKtCDADrSuw-91" parent="1">
          <mxGeometry width="50" height="50" relative="1" as="geometry">
            <mxPoint x="90.00000000000026" y="247.00599999999997" as="sourcePoint" />
            <mxPoint x="261.28" y="250" as="targetPoint" />
            <Array as="points" />
          </mxGeometry>
        </mxCell>
        <mxCell id="J-rECzXJLJKtCDADrSuw-94" value="&lt;span style=&quot;text-wrap-mode: wrap; background-color: rgb(251, 251, 251);&quot;&gt;&lt;font style=&quot;font-size: 10px;&quot;&gt;ข้อมูลสมาชิก&lt;/font&gt;&lt;/span&gt;" style="edgeLabel;html=1;align=center;verticalAlign=middle;resizable=0;points=[];rotation=0;" vertex="1" connectable="0" parent="J-rECzXJLJKtCDADrSuw-93">
          <mxGeometry x="-0.0639" y="2" relative="1" as="geometry">
            <mxPoint x="40" y="2" as="offset" />
          </mxGeometry>
        </mxCell>
        <mxCell id="J-rECzXJLJKtCDADrSuw-95" value="" style="endArrow=classic;html=1;rounded=0;exitX=-0.001;exitY=0.799;exitDx=0;exitDy=0;exitPerimeter=0;entryX=1;entryY=0.709;entryDx=0;entryDy=0;entryPerimeter=0;" edge="1" source="J-rECzXJLJKtCDADrSuw-91" parent="1">
          <mxGeometry width="50" height="50" relative="1" as="geometry">
            <mxPoint x="260.28" y="270" as="sourcePoint" />
            <mxPoint x="91.28" y="264.28599999999994" as="targetPoint" />
            <Array as="points" />
          </mxGeometry>
        </mxCell>
        <mxCell id="J-rECzXJLJKtCDADrSuw-96" value="&lt;span style=&quot;text-wrap-mode: wrap; background-color: rgb(251, 251, 251);&quot;&gt;&lt;font style=&quot;font-size: 10px;&quot;&gt;ค้นหาข้อมูลสมาชิก&lt;/font&gt;&lt;/span&gt;" style="edgeLabel;html=1;align=center;verticalAlign=middle;resizable=0;points=[];rotation=0;" vertex="1" connectable="0" parent="J-rECzXJLJKtCDADrSuw-95">
          <mxGeometry x="-0.0639" y="2" relative="1" as="geometry">
            <mxPoint x="-41" y="4" as="offset" />
          </mxGeometry>
        </mxCell>
        <mxCell id="J-rECzXJLJKtCDADrSuw-97" value="" style="group" vertex="1" connectable="0" parent="1">
          <mxGeometry x="261.28" y="280" width="190" height="30" as="geometry" />
        </mxCell>
        <mxCell id="J-rECzXJLJKtCDADrSuw-98" value="&lt;font style=&quot;font-size: 18px;&quot;&gt;D1&lt;/font&gt;" style="html=1;dashed=0;whiteSpace=wrap;shape=mxgraph.dfd.dataStoreID;align=left;spacingLeft=3;points=[[0,0],[0.5,0],[1,0],[0,0.5],[1,0.5],[0,1],[0.5,1],[1,1]];container=0;" vertex="1" parent="J-rECzXJLJKtCDADrSuw-97">
          <mxGeometry width="190" height="30" as="geometry" />
        </mxCell>
        <mxCell id="J-rECzXJLJKtCDADrSuw-99" value="&lt;span style=&quot;font-size: 18px; font-weight: 400; text-wrap-mode: wrap;&quot;&gt;ลูกค้า&lt;/span&gt;" style="text;strokeColor=none;fillColor=none;html=1;fontSize=24;fontStyle=1;verticalAlign=middle;align=center;container=0;" vertex="1" parent="J-rECzXJLJKtCDADrSuw-97">
          <mxGeometry x="28.5" width="95" height="30" as="geometry" />
        </mxCell>
        <mxCell id="J-rECzXJLJKtCDADrSuw-100" value="" style="endArrow=classic;html=1;rounded=0;exitX=0.992;exitY=0.389;exitDx=0;exitDy=0;exitPerimeter=0;entryX=0;entryY=0.242;entryDx=0;entryDy=0;entryPerimeter=0;" edge="1" target="J-rECzXJLJKtCDADrSuw-98" parent="1">
          <mxGeometry width="50" height="50" relative="1" as="geometry">
            <mxPoint x="90.00000000000026" y="287.006" as="sourcePoint" />
            <mxPoint x="261.28" y="290" as="targetPoint" />
            <Array as="points" />
          </mxGeometry>
        </mxCell>
        <mxCell id="J-rECzXJLJKtCDADrSuw-101" value="&lt;span style=&quot;text-wrap-mode: wrap; background-color: rgb(251, 251, 251);&quot;&gt;&lt;font style=&quot;font-size: 10px;&quot;&gt;ข้อมูลลูกค้า&lt;/font&gt;&lt;/span&gt;" style="edgeLabel;html=1;align=center;verticalAlign=middle;resizable=0;points=[];rotation=0;" vertex="1" connectable="0" parent="J-rECzXJLJKtCDADrSuw-100">
          <mxGeometry x="-0.0639" y="2" relative="1" as="geometry">
            <mxPoint x="40" y="2" as="offset" />
          </mxGeometry>
        </mxCell>
        <mxCell id="J-rECzXJLJKtCDADrSuw-102" value="" style="endArrow=classic;html=1;rounded=0;exitX=-0.001;exitY=0.799;exitDx=0;exitDy=0;exitPerimeter=0;entryX=1;entryY=0.709;entryDx=0;entryDy=0;entryPerimeter=0;" edge="1" source="J-rECzXJLJKtCDADrSuw-98" parent="1">
          <mxGeometry width="50" height="50" relative="1" as="geometry">
            <mxPoint x="260.28" y="310" as="sourcePoint" />
            <mxPoint x="91.28" y="304.28599999999994" as="targetPoint" />
            <Array as="points" />
          </mxGeometry>
        </mxCell>
        <mxCell id="J-rECzXJLJKtCDADrSuw-103" value="&lt;span style=&quot;text-wrap-mode: wrap; background-color: rgb(251, 251, 251);&quot;&gt;&lt;font style=&quot;font-size: 10px;&quot;&gt;ค้นหาข้อมูลลูกค้า&lt;/font&gt;&lt;/span&gt;" style="edgeLabel;html=1;align=center;verticalAlign=middle;resizable=0;points=[];rotation=0;" vertex="1" connectable="0" parent="J-rECzXJLJKtCDADrSuw-102">
          <mxGeometry x="-0.0639" y="2" relative="1" as="geometry">
            <mxPoint x="-41" y="4" as="offset" />
          </mxGeometry>
        </mxCell>
        <mxCell id="J-rECzXJLJKtCDADrSuw-108" value="&lt;span style=&quot;font-size: 18px; text-wrap-mode: nowrap;&quot;&gt;ผู้ใช้&lt;/span&gt;" style="rounded=0;whiteSpace=wrap;html=1;" vertex="1" parent="1">
          <mxGeometry x="-360" y="425" width="120" height="60" as="geometry" />
        </mxCell>
        <mxCell id="J-rECzXJLJKtCDADrSuw-109" value="" style="endArrow=classic;html=1;rounded=0;exitX=1;exitY=0.25;exitDx=0;exitDy=0;entryX=0.003;entryY=0.172;entryDx=0;entryDy=0;entryPerimeter=0;" edge="1" source="J-rECzXJLJKtCDADrSuw-108" parent="1">
          <mxGeometry width="50" height="50" relative="1" as="geometry">
            <mxPoint x="-260" y="435" as="sourcePoint" />
            <mxPoint x="-70" y="440" as="targetPoint" />
            <Array as="points" />
          </mxGeometry>
        </mxCell>
        <mxCell id="J-rECzXJLJKtCDADrSuw-110" value="&lt;span style=&quot;text-wrap-mode: wrap; background-color: rgb(251, 251, 251);&quot;&gt;&lt;font style=&quot;font-size: 10px;&quot;&gt;ข้อมูลโครงการ&lt;/font&gt;&lt;/span&gt;" style="edgeLabel;html=1;align=center;verticalAlign=middle;resizable=0;points=[];rotation=0;" vertex="1" connectable="0" parent="J-rECzXJLJKtCDADrSuw-109">
          <mxGeometry x="-0.0639" y="2" relative="1" as="geometry">
            <mxPoint x="30" y="-3" as="offset" />
          </mxGeometry>
        </mxCell>
        <mxCell id="J-rECzXJLJKtCDADrSuw-111" value="" style="endArrow=classic;html=1;rounded=0;exitX=-0.003;exitY=0.826;exitDx=0;exitDy=0;entryX=1;entryY=0.833;entryDx=0;entryDy=0;entryPerimeter=0;exitPerimeter=0;" edge="1" target="J-rECzXJLJKtCDADrSuw-108" parent="1">
          <mxGeometry width="50" height="50" relative="1" as="geometry">
            <mxPoint x="-70" y="476" as="sourcePoint" />
            <mxPoint x="-260" y="465" as="targetPoint" />
            <Array as="points" />
          </mxGeometry>
        </mxCell>
        <mxCell id="J-rECzXJLJKtCDADrSuw-112" value="&lt;span style=&quot;text-wrap-mode: wrap; background-color: rgb(251, 251, 251);&quot;&gt;&lt;font style=&quot;font-size: 10px;&quot;&gt;แสดงข้อมูลโครงการ&lt;/font&gt;&lt;/span&gt;&lt;div&gt;&lt;span style=&quot;text-wrap-mode: wrap; background-color: rgb(251, 251, 251);&quot;&gt;&lt;font style=&quot;font-size: 10px;&quot;&gt;&lt;br&gt;&lt;/font&gt;&lt;/span&gt;&lt;/div&gt;" style="edgeLabel;html=1;align=center;verticalAlign=middle;resizable=0;points=[];" vertex="1" connectable="0" parent="J-rECzXJLJKtCDADrSuw-111">
          <mxGeometry x="0.0721" y="-2" relative="1" as="geometry">
            <mxPoint x="-39" y="7" as="offset" />
          </mxGeometry>
        </mxCell>
        <mxCell id="J-rECzXJLJKtCDADrSuw-114" value="" style="endArrow=classic;html=1;rounded=0;edgeStyle=orthogonalEdgeStyle;" edge="1" parent="1">
          <mxGeometry width="50" height="50" relative="1" as="geometry">
            <mxPoint x="-40" y="310" as="sourcePoint" />
            <mxPoint x="-260" y="425" as="targetPoint" />
            <Array as="points">
              <mxPoint x="-40" y="360" />
              <mxPoint x="-260" y="360" />
            </Array>
          </mxGeometry>
        </mxCell>
        <mxCell id="J-rECzXJLJKtCDADrSuw-117" value="แสดงข้อมูลผู้ใช้, ข้อมูลสมาชิก, ข้อมูลลูกค้า" style="edgeLabel;html=1;align=center;verticalAlign=middle;resizable=0;points=[];" vertex="1" connectable="0" parent="J-rECzXJLJKtCDADrSuw-114">
          <mxGeometry x="0.4097" relative="1" as="geometry">
            <mxPoint x="77" as="offset" />
          </mxGeometry>
        </mxCell>
        <mxCell id="J-rECzXJLJKtCDADrSuw-115" value="" style="endArrow=classic;html=1;rounded=0;edgeStyle=orthogonalEdgeStyle;exitX=0.59;exitY=0.007;exitDx=0;exitDy=0;exitPerimeter=0;" edge="1" parent="1" source="J-rECzXJLJKtCDADrSuw-108">
          <mxGeometry width="50" height="50" relative="1" as="geometry">
            <mxPoint x="-290" y="420" as="sourcePoint" />
            <mxPoint x="-60" y="310" as="targetPoint" />
            <Array as="points">
              <mxPoint x="-289" y="330" />
              <mxPoint x="-60" y="330" />
            </Array>
          </mxGeometry>
        </mxCell>
        <mxCell id="J-rECzXJLJKtCDADrSuw-116" value="ข้อมูลผู้ใช้, ข้อมูลสมาชิก, ข้อมูลลูกค้า" style="edgeLabel;html=1;align=center;verticalAlign=middle;resizable=0;points=[];" vertex="1" connectable="0" parent="J-rECzXJLJKtCDADrSuw-115">
          <mxGeometry x="-0.033" relative="1" as="geometry">
            <mxPoint x="26" as="offset" />
          </mxGeometry>
        </mxCell>
      </root>
    </mxGraphModel>
  </diagram>
</mxfile>
